<svg width="588" height="132" viewBox="0 0 588 132" fill="none" xmlns="http://www.w3.org/2000/svg">
<g clip-path="url(#clip0_7084_135)">
<path d="M111.953 131.988H111.407C104.971 131.988 99.1184 128.26 96.3985 122.432L60.5056 45.4611C59.5099 43.3241 57.3607 41.952 55.0051 41.952H51.7343C51.1974 41.952 50.7179 42.2876 50.5341 42.792L21.9899 121.108C19.61 127.641 13.3931 132 6.43547 132H1.13593C0.582973 132 0.197446 131.451 0.384726 130.931L18.6766 80.1153C18.8286 79.6929 19.2293 79.4113 19.6782 79.4113H27.2475C29.7974 79.4113 32.0802 77.8206 32.9545 75.4164L56.4622 10.8917C58.8421 4.34698 65.059 0 72.0166 0C78.452 0 84.3047 3.72772 87.0246 9.56821L122.602 85.956C123.597 88.0931 125.747 89.4652 128.102 89.4652H132.417C132.954 89.4652 133.434 89.1295 133.618 88.6251L161.943 10.8917C164.323 4.35912 170.54 0 177.498 0H183.072C183.626 0 184.012 0.550928 183.822 1.0717L165.305 51.8941C165.153 52.3118 164.757 52.5909 164.312 52.5942L156.807 52.6494C154.269 52.6494 151.999 54.2401 151.124 56.6321L127.495 121.133C125.103 127.653 118.898 131.988 111.953 131.988Z" fill="#ECF9E6"/>
<g clip-path="url(#clip1_7084_135)">
<path d="M242.102 46.6563V112.59H223.812V18.0974H245.406L286.602 80.7477V18.0974H305.031V112.59H285.428L242.102 46.6563Z" fill="#ECF9E6"/>
<path d="M315.021 77.1852C315.021 56.2686 329.629 40.9841 349.889 40.9841C372.139 40.9841 386.866 59.015 383.583 81.9218H333.709C334.903 93.3652 340.416 99.6939 349.77 99.6939C357.79 99.6939 363.203 95.7534 365.293 88.7679H383.463C379.523 104.689 367.283 113.784 350.168 113.784C329.112 113.784 315.021 99.1765 315.021 77.2051V77.1852ZM333.968 70.339H364.238C363.721 60.6071 358.188 54.4177 349.491 54.4177C340.794 54.4177 335.54 59.9504 333.968 70.339Z" fill="#ECF9E6"/>
<path d="M435.307 42.3171H453.477V112.59H436.76V103.375C432.938 109.565 425.177 113.903 416.221 113.903C402.131 113.903 391.881 105.346 391.881 87.056V42.3171H410.171V83.5135C410.171 93.3847 415.047 97.7233 422.41 97.7233C428.998 97.7233 435.307 92.4493 435.307 82.9762V42.3171Z" fill="#ECF9E6"/>
<path d="M537.184 112.59H518.894V42.3171H535.731V55.8701C540.865 46.9143 551.791 41.521 563.115 41.521V60.4674C547.592 59.2733 537.184 62.975 537.184 78.4982V112.59Z" fill="#ECF9E6"/>
<path d="M569.285 112.59V18.0974H587.714V112.59H569.285Z" fill="#ECF9E6"/>
<path d="M510.933 57.9014V42.3184H490.952V21.5212H472.682V42.3184H458.413V57.9014H472.682V90.361C472.682 102.64 482.633 112.591 494.912 112.591H510.913V97.0081H496.166C493.28 97.0081 490.932 94.6597 490.932 91.774V57.8815H510.913L510.933 57.9014Z" fill="#ECF9E6"/>
</g>
</g>
<defs>
<clipPath id="clip0_7084_135">
<rect width="587.714" height="132" fill="white"/>
</clipPath>
<clipPath id="clip1_7084_135">
<rect width="363.901" height="95.8064" fill="white" transform="translate(223.812 18.0967)"/>
</clipPath>
</defs>
</svg>
